:SAMPLES-PER-SECOND 30
:FULLY-SPECIFIED
:DEGREES
598
root  -54.9663 5.66218 -21.2676 156.584 -60.7946 -167.782
RightUpLeg  -79.6355 -7.68454 4.79299
RightLeg  162.489 10.2768 -3.69158
RightFoot  -58.2448 5.71593 10.8494
RightToes  5.4712 0.0186305 0.0591438
Spine  28.5344 1.06818 2.57756
Spine1  45.043 1.90719 3.60859
HEad  -77.8825 17.1494 12.7527
LeftShoulder1  -1.94126e-019 -3.10601e-018 -2.51263e-017
LeftArm  51.2151 -66.959 -136.592
LeftForeArm  58.1324 -2.12851 -0.327197
LeftHand  -0.522425 -3.03303 7.4365
RightShoulder  -4.96962e-017 0 -2.36833e-017
RightArm  10.7768 74.1911 107.593
RightForeArm  80 2.28251 0.307233
RightHand  -0.455375 -0.542328 -10.9008
LeftUpLeg  -78.8537 7.02578 25.4403
LeftLeg  164.746 -7.17723 2.4572
LeftFoot  -55.7723 -8.79545 -16.3768
LeftToes  18.2281 2.03064e-006 1.83538e-008
599
root  -54.9808 5.65438 -21.2671 156.636 -60.8301 -167.82
RightUpLeg  -79.561 -7.67429 4.72104
RightLeg  162.546 10.2928 -3.68604
RightFoot  -58.3225 5.74845 10.8913
RightToes  5.50451 0.0187529 0.0584041
Spine  28.5457 1.03261 2.52656
Spine1  45.0662 1.8965 3.4728
HEad  -78.2332 13.4481 13.8892
LeftShoulder1  -1.94126e-019 -3.10601e-018 -2.51263e-017
LeftArm  51.1695 -67.0547 -136.554
LeftForeArm  57.9989 -2.0577 -0.314794
LeftHand  -0.529243 -3.00136 7.55666
RightShoulder  -4.96962e-017 0 -2.36833e-017
RightArm  11.466 74.1248 108.218
RightForeArm  80.4703 2.20851 0.293398
RightHand  -0.433582 -0.930171 -11.2406
LeftUpLeg  -78.8015 6.92434 25.3738
LeftLeg  164.779 -7.26439 2.48213
LeftFoot  -55.914 -8.86485 -16.4569
LeftToes  18.5911 2.03064e-006 1.83538e-008
600
root  -54.9998 5.64996 -21.2546 156.801 -60.8173 -167.952
RightUpLeg  -79.5773 -7.67026 4.50625
RightLeg  162.582 10.1964 -3.64219
RightFoot  -58.3768 5.73397 10.8539
RightToes  5.85638 0.018759 0.0569076
Spine  28.5762 1.0159 2.47297
Spine1  45.1247 1.87841 3.37748
HEad  -78.9458 8.76643 15.1017
LeftShoulder1  -1.94126e-019 -3.10601e-018 -2.51263e-017
LeftArm  51.2095 -67.1814 -136.537
LeftForeArm  57.7916 -2.01843 -0.308324
LeftHand  -0.527397 -2.91795 7.60114
RightShoulder  -4.96962e-017 0 -2.36833e-017
RightArm  12.1232 74.186 108.822
RightForeArm  80.5873 2.13328 0.280019
RightHand  -0.426784 -1.01802 -11.2766
LeftUpLeg  -78.7106 6.82995 25.0787
LeftLeg  164.809 -7.48804 2.5535
LeftFoot  -56.0249 -8.96418 -16.6026
LeftToes  18.5244 2.03064e-006 1.83538e-008
601
root  -55.0205 5.63745 -21.2454 156.965 -60.7709 -168.075
RightUpLeg  -79.5818 -7.6598 4.2863
RightLeg  162.64 10.048 -3.5744
RightFoot  -58.4626 5.69757 10.7707
RightToes  5.68156 0.0186283 0.0543709
Spine  28.588 1.00853 2.44381
Spine1  45.1554 1.86481 3.3255
HEad  -79.9477 3.16087 16.3946
LeftShoulder1  -1.94126e-019 -3.10601e-018 -2.51263e-017
LeftArm  51.1487 -67.2132 -136.383
LeftForeArm  57.5559 -2.05525 -0.315525
LeftHand  -0.516587 -2.8029 7.54702
RightShoulder  -4.96962e-017 0 -2.36833e-017
RightArm  12.6622 74.2476 109.302
RightForeArm  80.8214 1.98 0.252513
RightHand  -0.428684 -1.03939 -11.3806
LeftUpLeg  -78.5886 6.76356 24.8566
LeftLeg  164.866 -7.70128 2.61712
LeftFoot  -56.282 -9.12129 -16.8028
LeftToes  19.0786 2.03064e-006 1.83538e-008
602
root  -55.0407 5.62617 -21.2383 157.16 -60.7276 -168.208
RightUpLeg  -79.6069 -7.68518 4.05084
RightLeg  162.711 9.84695 -3.48467
RightFoot  -58.4637 5.62291 10.6369
RightToes  5.11979 0.0183402 0.0489475
Spine  28.588 0.986013 2.41841
Spine1  45.1657 1.8267 3.26292
HEad  -81.6499 -3.65224 18.0358
LeftShoulder1  -1.94126e-019 -3.10601e-018 -2.51263e-017
LeftArm  50.9712 -67.2553 -136.077
LeftForeArm  57.3969 -2.1385 -0.330567
LeftHand  -0.511505 -2.87809 7.41219
RightShoulder  -4.96962e-017 0 -2.36833e-017
RightArm  13.2576 74.2793 109.81
RightForeArm  81.0668 1.82035 0.22404
RightHand  -0.420097 -1.11608 -11.3431
LeftUpLeg  -78.4786 6.71705 24.652
LeftLeg  164.92 -7.90766 2.67841
LeftFoot  -56.5113 -9.27521 -17.0046
LeftToes  19.4125 2.03064e-006 1.83538e-008
603
root  -55.06 5.61916 -21.2353 157.357 -60.7105 -168.319
RightUpLeg  -79.6279 -7.75087 3.86585
RightLeg  162.783 9.67748 -3.40696
RightFoot  -58.468 5.55971 10.5229
RightToes  4.74553 0.017874 0.0453393
Spine  28.5799 0.942625 2.40489
Spine1  45.1651 1.76639 3.19543
HEad  -84.3089 -11.6665 20.1865
LeftShoulder1  -1.94126e-019 -3.10601e-018 -2.51263e-017
LeftArm  50.7141 -67.2851 -135.668
LeftForeArm  57.2727 -2.29544 -0.358488
LeftHand  -0.505659 -2.97958 7.24809
RightShoulder  -4.96962e-017 0 -2.36833e-017
RightArm  13.7904 74.3004 110.254
RightForeArm  81.2558 1.68979 0.200774
RightHand  -0.413575 -1.19716 -11.373
LeftUpLeg  -78.422 6.71215 24.5087
LeftLeg  164.966 -8.00893 2.7052
LeftFoot  -56.6739 -9.36834 -17.1171
LeftToes  19.8018 2.03064e-006 1.83538e-008
604
root  -55.0695 5.6174 -21.2365 157.584 -60.6739 -168.433
RightUpLeg  -79.7362 -7.81636 3.75847
RightLeg  162.806 9.52195 -3.34425
RightFoot  -58.4477 5.48809 10.3989
RightToes  4.35176 0.0172092 0.0408268
Spine  28.5878 0.894023 2.38046
Spine1  45.1862 1.6943 3.10628
HEad  -87.624 -20.0281 22.6823
LeftShoulder1  -1.94126e-019 -3.10601e-018 -2.51263e-017
LeftArm  50.4264 -67.3842 -135.215
LeftForeArm  57.1826 -2.47537 -0.390171
LeftHand  -0.506363 -3.11358 7.15235
RightShoulder  -4.96962e-017 0 -2.36833e-017
RightArm  14.3691 74.3289 110.741
RightForeArm  81.4371 1.64248 0.192069
RightHand  -0.409759 -1.23206 -11.3579
LeftUpLeg  -78.3861 6.70569 24.4029
LeftLeg  164.976 -8.10668 2.73639
LeftFoot  -56.7561 -9.43726 -17.2135
LeftToes  19.6883 2.03064e-006 1.83538e-008
